<?xml version="1.0" encoding="UTF-8" standalone="no"?>
<!DOCTYPE svg PUBLIC "-//W3C//DTD SVG 1.1//EN" "http://www.w3.org/Graphics/SVG/1.1/DTD/svg11.dtd">
<svg width="100%" height="100%" viewBox="0 0 615 875" version="1.1" xmlns="http://www.w3.org/2000/svg" xmlns:xlink="http://www.w3.org/1999/xlink" xml:space="preserve" xmlns:serif="http://www.serif.com/" style="fill-rule:evenodd;clip-rule:evenodd;stroke-linecap:square;stroke-linejoin:bevel;stroke-miterlimit:1.5;">
    <g id="Ebene1">
        <g transform="matrix(1,0,0,1,-105.286,-76.2417)">
            <path d="M307.395,412.648L408.987,354.348L512.81,412.502L410.213,471.236L307.395,412.648Z" style="fill:url(#_Linear1);stroke:black;stroke-width:2.08px;"/>
        </g>
        <g transform="matrix(1,0,0,1,-210.819,-0.637072)">
            <path d="M307.395,412.648L408.987,354.348L512.81,412.502L410.213,471.236L307.395,412.648Z" style="fill:url(#_Linear2);stroke:black;stroke-width:2.08px;"/>
        </g>
        <g transform="matrix(1,0,0,1,-105.182,60.994)">
            <path d="M307.395,412.648L408.987,354.348L512.81,412.502L410.213,471.236L307.395,412.648Z" style="fill:url(#_Linear3);stroke:black;stroke-width:2.08px;"/>
        </g>
        <g transform="matrix(1,0,0,1,1,0)">
            <path d="M307.395,412.648L408.987,354.348L512.81,412.502L410.213,471.236L307.395,412.648Z" style="fill:url(#_Linear4);stroke:black;stroke-width:2.08px;"/>
        </g>
    </g>
    <defs>
        <linearGradient id="_Linear1" x1="0" y1="0" x2="1" y2="0" gradientUnits="userSpaceOnUse" gradientTransform="matrix(0.468911,0.333089,-0.333089,0.468911,308.003,413.356)"><stop offset="0" style="stop-color:white;stop-opacity:1"/><stop offset="1" style="stop-color:rgb(166,166,166);stop-opacity:1"/></linearGradient>
        <linearGradient id="_Linear2" x1="0" y1="0" x2="1" y2="0" gradientUnits="userSpaceOnUse" gradientTransform="matrix(0.468911,0.333089,-0.333089,0.468911,308.003,413.356)"><stop offset="0" style="stop-color:white;stop-opacity:1"/><stop offset="1" style="stop-color:rgb(166,166,166);stop-opacity:1"/></linearGradient>
        <linearGradient id="_Linear3" x1="0" y1="0" x2="1" y2="0" gradientUnits="userSpaceOnUse" gradientTransform="matrix(0.468911,0.333089,-0.333089,0.468911,308.003,413.356)"><stop offset="0" style="stop-color:white;stop-opacity:1"/><stop offset="1" style="stop-color:rgb(166,166,166);stop-opacity:1"/></linearGradient>
        <linearGradient id="_Linear4" x1="0" y1="0" x2="1" y2="0" gradientUnits="userSpaceOnUse" gradientTransform="matrix(0.468911,0.333089,-0.333089,0.468911,308.003,413.356)"><stop offset="0" style="stop-color:white;stop-opacity:1"/><stop offset="1" style="stop-color:rgb(166,166,166);stop-opacity:1"/></linearGradient>
    </defs>
</svg>
